<svg xmlns="http://www.w3.org/2000/svg" width="15.289" height="30" viewBox="0 0 15.289 30"><g transform="translate(-139 -5)"><path d="M149.079,34.976c-.149.006-.244.018-.339.018-2.036,0-4.066-.006-6.1.006-.286,0-.363-.077-.363-.363q.009-7.109.006-14.223V20H139V14.942h.321c.893,0,1.786-.006,2.679.006.226,0,.286-.065.286-.286-.012-1.328-.012-2.661,0-3.989A5.857,5.857,0,0,1,142.87,8a5.084,5.084,0,0,1,2.81-2.429,8.851,8.851,0,0,1,3.114-.554c1.727-.024,3.453-.012,5.18-.018.161,0,.292-.006.292.22q-.009,2.456-.006,4.912a.484.484,0,0,1-.03.113H153.9c-1.072,0-2.143-.006-3.215,0a1.558,1.558,0,0,0-1.435.792,1.146,1.146,0,0,0-.155.56c-.018,1.012,0,2.024-.012,3.036,0,.238.071.3.3.3,1.488-.012,2.977-.006,4.465-.006h.435c-.208,1.7-.411,3.37-.619,5.055h-4.59Z" transform="translate(0 0)"/></g></svg>