<svg xmlns="http://www.w3.org/2000/svg" width="140" height="44" viewBox="0 0 140 44"><defs><style>.a{fill:#fff;}.b{font-size:20px;font-family:Nunito-Light, Nunito;font-weight:300;}.c{fill:none;stroke:#000;stroke-linecap:round;stroke-miterlimit:10;stroke-width:2px;}</style></defs><g transform="translate(-191 -649)"><rect class="a" width="140" height="44" rx="20" transform="translate(191 649)"/><text class="b" transform="translate(245 678)"><tspan x="0" y="0">Comprar</tspan></text><g transform="translate(208.53 658)"><path class="c" d="M1.4,1.7H6.6" transform="translate(-1.4 -1.7)"/><path class="c" d="M6.6,1.7,11,18.9" transform="translate(-1.4 -1.7)"/><path class="c" d="M11.8,18.9H28.3" transform="translate(-1.4 -1.7)"/><path class="c" d="M13.8,25.7a3,3,0,1,0-3-3A3,3,0,0,0,13.8,25.7Z" transform="translate(-1.4 -1.7)"/><path class="c" d="M25.3,25.7a3,3,0,1,0-3-3A3,3,0,0,0,25.3,25.7Z" transform="translate(-1.4 -1.7)"/><path class="c" d="M25.7,14.6H11.3a1.3,1.3,0,0,1-1.3-1L8.1,6.9A1.341,1.341,0,0,1,9.4,5.2H27.5a1.33,1.33,0,0,1,1.3,1.7l-1.9,6.7C26.9,14.2,26.4,14.6,25.7,14.6Z" transform="translate(-1.4 -1.7)"/></g></g></svg>