<svg xmlns="http://www.w3.org/2000/svg" width="277" height="150.171" viewBox="0 0 277 150.171"><defs><style>.a{font-size:20px;font-family:Nunito-ExtraLight, Nunito;font-weight:200;}.a,.b{letter-spacing:-0.025em;}.b{font-size:15px;font-family:Nunito-Bold, Nunito;font-weight:700;}</style></defs><g transform="translate(-280 -931)"><g transform="translate(0 37)"><text class="a" transform="translate(416 990)"><tspan x="0" y="0">NOVO SERVIÇO</tspan><tspan x="0" y="27">DE RETIRADA</tspan></text><text class="b" transform="translate(416 1039)"><tspan x="0" y="0">Sempre Frescos</tspan></text></g><g transform="translate(276.5 931)"><g transform="translate(3.5)"><path d="M120.257,34.13h-9.73V27.3C110.527,12.225,98.913,0,84.581,0A25.017,25.017,0,0,0,68.666,5.768l.032.044a3.494,3.494,0,0,0-.941,2.4A3.33,3.33,0,0,0,71,11.625a3.019,3.019,0,0,0,1.612-.515l.071.1a18.688,18.688,0,0,1,11.9-4.379c10.745,0,19.459,9.171,19.459,20.478V34.13H68.365V27.3C68.365,12.225,56.751,0,42.419,0S16.473,12.225,16.473,27.3V34.13H6.743A3.33,3.33,0,0,0,3.5,37.543V146.758a3.33,3.33,0,0,0,3.243,3.413H120.257a3.33,3.33,0,0,0,3.243-3.413V37.543A3.33,3.33,0,0,0,120.257,34.13ZM22.959,27.3C22.959,16,31.671,6.826,42.419,6.826S61.878,16,61.878,27.3V34.13H22.959ZM78.095,143.345H9.986V40.956h6.486V51.195a3.247,3.247,0,1,0,6.486,0V40.956H61.878V51.195a3.247,3.247,0,1,0,6.486,0V40.956h9.73ZM84.581,40.956H97.554v83.717l-12.973,13.6Zm4.784,102.389,11.478-12.027,11.429,12.027H89.365Zm27.649-5.1-12.973-13.652V40.956h12.973Z" transform="translate(-3.5)"/></g></g></g></svg>