<svg xmlns="http://www.w3.org/2000/svg" width="181.617" height="114.069" viewBox="0 0 181.617 114.069"><path d="M93.715,44.023a3.013,3.013,0,0,0-2.1.963L75.644,61.653,65.806,51.387c-2.755-3-7.2,1.635-4.329,4.512l12,12.535a2.97,2.97,0,0,0,4.329,0L95.942,49.5a3.227,3.227,0,0,0-2.222-5.482ZM3.027,69.371H21.189a3.172,3.172,0,0,1,0,6.337H3.027a3.172,3.172,0,0,1,0-6.337Zm0-25.349H21.189a3.172,3.172,0,0,1,0,6.337H3.027a3.172,3.172,0,0,1,0-6.337Zm0-25.349H21.189a3.172,3.172,0,0,1,0,6.337H3.027a3.172,3.172,0,0,1,0-6.337ZM148.321,88.383c-8.324,0-15.135,7.129-15.135,15.843s6.811,15.843,15.135,15.843,15.135-7.129,15.135-15.843S156.645,88.383,148.321,88.383Zm0,6.337a9.516,9.516,0,1,1-9.081,9.506A9.257,9.257,0,0,1,148.321,94.72Zm-78.7-6.337c-8.324,0-15.135,7.129-15.135,15.843S61.3,120.069,69.62,120.069s15.135-7.129,15.135-15.843S77.944,88.383,69.62,88.383Zm0,6.337a9.516,9.516,0,1,1-9.081,9.506A9.257,9.257,0,0,1,69.62,94.72ZM39.35,6a9.352,9.352,0,0,0-9.081,9.506V85.214A9.352,9.352,0,0,0,39.35,94.72H51.458c4.092.063,4.092-6.4,0-6.337H39.35a3.025,3.025,0,0,1-3.027-3.169V15.506a3.025,3.025,0,0,1,3.027-3.169h78.7a3.025,3.025,0,0,1,3.027,3.169V88.383h-33.3c-4,0-3.923,6.4,0,6.337h42.377c4,0,3.959-6.337,0-6.337h-3.027V31.349h25.59l22.841,37.364v16.5a3.025,3.025,0,0,1-3.027,3.169h-6.054c-3.959,0-3.959,6.337,0,6.337h6.054a9.352,9.352,0,0,0,9.081-9.506V67.787a3.313,3.313,0,0,0-.472-1.711L156.929,26.469a3,3,0,0,0-2.555-1.458H127.132V15.506A9.352,9.352,0,0,0,118.051,6Z" transform="translate(0 -6)"/></svg>