<svg xmlns="http://www.w3.org/2000/svg" width="140.773" height="128.148" viewBox="0 0 140.773 128.148"><defs><style>.a{fill:#090000;stroke:#000;stroke-width:2px;}</style></defs><path class="a" d="M140.811,28.43a11.854,11.854,0,0,0-8.31-3.277H108.4V16a10,10,0,0,0-.475-2.6A9.8,9.8,0,0,0,106.5,11.03h0a8.1,8.1,0,0,0-5.7-2.825,8.309,8.309,0,0,0-6.173,1.808h0l-5.7,4.519-2.968,2.373c-.356-.452-.712-.791-1.068-1.243a14.546,14.546,0,0,0-9.972-3.955,14.256,14.256,0,0,0-9.972,3.955,12.152,12.152,0,0,0-1.068,1.243l-2.968-2.373-5.7-4.519h0A8.786,8.786,0,0,0,43.35,11.03h0A9.8,9.8,0,0,0,41.925,13.4a6.345,6.345,0,0,0-.475,2.6v9.152h-24.1a12.069,12.069,0,0,0-8.31,3.277A10.74,10.74,0,0,0,5.6,36.339a10.93,10.93,0,0,0,3.443,7.909,11.854,11.854,0,0,0,8.31,3.277h.356V122.1a11.49,11.49,0,0,0,3.8,8.587,13.087,13.087,0,0,0,9.022,3.616h88.914a12.665,12.665,0,0,0,9.022-3.616,11.864,11.864,0,0,0,3.8-8.587V47.412h.356a12.069,12.069,0,0,0,8.31-3.277,10.74,10.74,0,0,0,3.443-7.909A11.489,11.489,0,0,0,140.811,28.43ZM87.154,18.487,90.359,16l5.7-4.406.119-.113a6.954,6.954,0,0,1,4.63-1.356,6.214,6.214,0,0,1,4.274,2.147l.119.113a5.662,5.662,0,0,1,1.068,1.808,6.119,6.119,0,0,1,.356,2.034v9.039H89.053a4.419,4.419,0,0,0-.119-1.243v-.339c0-.339-.119-.565-.119-.9a.4.4,0,0,0-.119-.339c-.119-.339-.119-.678-.237-1.017h0c-.119-.452-.356-.9-.475-1.356,0-.113-.119-.113-.119-.226l-.712-1.356ZM74.927,13.742a12.031,12.031,0,0,1,8.547,3.39,12.422,12.422,0,0,1,1.543,1.921c.237.339.475.791.712,1.13,0,.113.119.226.119.339.237.452.356.9.594,1.356a3.165,3.165,0,0,1,.237,1.017v.226c0,.226.119.565.119.791v1.356H62.937V23.911c0-.226.119-.565.119-.791v-.226c.119-.339.119-.678.237-1.017a6.731,6.731,0,0,1,.594-1.356c0-.113.119-.226.119-.339.237-.339.475-.791.712-1.13a12.422,12.422,0,0,1,1.543-1.921A12.529,12.529,0,0,1,74.927,13.742Zm6.292,31.749H68.635V27.074H81.219ZM43.35,25.153V16.115a6.119,6.119,0,0,1,.356-2.034,5.661,5.661,0,0,1,1.068-1.808h0a6.463,6.463,0,0,1,4.274-2.147,6.772,6.772,0,0,1,4.63,1.356h0L59.376,16l3.205,2.486a.113.113,0,0,1-.119.113c-.237.339-.356.678-.594,1.017,0,.113-.119.113-.119.226a6.158,6.158,0,0,0-.475,1.356h0a3.165,3.165,0,0,0-.237,1.017.4.4,0,0,1-.119.339c0,.339-.119.565-.119.9V23.8c0,.452-.119.791-.119,1.243h0l-17.332.113ZM10.467,42.892a8.911,8.911,0,0,1-2.849-6.553,9.1,9.1,0,0,1,2.849-6.553,9.837,9.837,0,0,1,6.885-2.712H66.617V45.491H17.352A10.275,10.275,0,0,1,10.467,42.892Zm56.15,4.519V80.743H19.608V47.412ZM19.608,82.663H66.617V94.64H19.608Zm3.205,46.663a9.845,9.845,0,0,1-3.205-7.231V96.561H66.617v35.817H30.41A10.649,10.649,0,0,1,22.813,129.327Zm45.822,3.051V47.412H81.219v84.853H68.635ZM130.246,94.64H83.237V82.663h47.009Zm-3.205,34.687a10.857,10.857,0,0,1-7.6,3.051H83.237V96.561h47.009V122.1A9.662,9.662,0,0,1,127.041,129.327Zm3.205-48.584H83.237V47.412h47.009Zm9.141-37.85A9.837,9.837,0,0,1,132.5,45.6H83.237V27.074H132.5a10.052,10.052,0,0,1,6.885,2.712,8.911,8.911,0,0,1,2.849,6.553A9.1,9.1,0,0,1,139.387,42.892Z" transform="translate(-4.6 -7.15)"/></svg>