<svg xmlns="http://www.w3.org/2000/svg" width="30" height="30" viewBox="0 0 30 30"><path d="M30,14.614a14.752,14.752,0,0,1-21.846,12.8L0,30l2.658-7.841A14.46,14.46,0,0,1,.545,14.614a14.728,14.728,0,0,1,29.455,0ZM15.273,2.327A12.348,12.348,0,0,0,2.891,14.614a12.157,12.157,0,0,0,2.359,7.2L3.7,26.38l4.758-1.512A12.394,12.394,0,0,0,27.655,14.614,12.349,12.349,0,0,0,15.273,2.327ZM22.71,17.979c-.091-.149-.331-.239-.692-.418s-2.137-1.046-2.467-1.165-.572-.179-.813.179-.932,1.165-1.143,1.4-.421.27-.782.09a9.881,9.881,0,0,1-2.9-1.778,10.8,10.8,0,0,1-2.008-2.48c-.21-.358-.022-.552.158-.73.163-.161.361-.418.542-.627a2.4,2.4,0,0,0,.361-.6.653.653,0,0,0-.03-.628c-.09-.179-.813-1.942-1.113-2.659s-.6-.6-.812-.6-.451-.03-.692-.03a1.332,1.332,0,0,0-.963.448,4.005,4.005,0,0,0-1.263,2.988,6.931,6.931,0,0,0,1.474,3.7c.18.239,2.5,3.973,6.167,5.408s3.67.955,4.332.9a3.651,3.651,0,0,0,2.437-1.7A2.986,2.986,0,0,0,22.71,17.979Z"/></svg>