<svg xmlns="http://www.w3.org/2000/svg" width="30" height="30.017" viewBox="0 0 30 30.017"><g transform="translate(-9.1 -8.869)"><path d="M39.085,23.873c0,2.1-.042,4.215.012,6.319a8.361,8.361,0,0,1-5.23,7.885,9.458,9.458,0,0,1-3.755.786c-4.069.006-8.145.06-12.214-.018a8.9,8.9,0,0,1-7.4-3.87,7.549,7.549,0,0,1-1.4-4.481v-13a8.136,8.136,0,0,1,4.783-7.619,9.191,9.191,0,0,1,4.281-1c3.948,0,7.9-.024,11.851.012a9.089,9.089,0,0,1,7.51,3.664,7.566,7.566,0,0,1,1.56,4.7Zm-27.754,0v6.651a5.2,5.2,0,0,0,.744,2.763,6.687,6.687,0,0,0,5.914,3.326c4.057.06,8.121.024,12.184.012a6.61,6.61,0,0,0,2.866-.635,6.047,6.047,0,0,0,3.815-5.847c-.024-4.293-.006-8.586-.006-12.879a5.456,5.456,0,0,0-1.064-3.308,6.76,6.76,0,0,0-5.611-2.83c-4.051-.048-8.1-.018-12.154-.012a7.138,7.138,0,0,0-2.509.478,6.2,6.2,0,0,0-4.2,6.016C11.386,19.7,11.331,21.787,11.331,23.873Z"/><path d="M149.278,149.329a8.165,8.165,0,1,1,8.264-8.172A8.224,8.224,0,0,1,149.278,149.329Zm0-2.627a5.543,5.543,0,1,0-5.659-5.545A5.594,5.594,0,0,0,149.278,146.7Z" transform="translate(-125.154 -117.753)"/><path d="M364.832,98a1.813,1.813,0,1,1-1.732,1.825A1.783,1.783,0,0,1,364.832,98Z" transform="translate(-333.002 -83.849)"/></g></svg>