<svg xmlns="http://www.w3.org/2000/svg" width="30.004" height="27.74" viewBox="0 0 30.004 27.74"><defs><style>.a{fill:#101820;}</style></defs><path class="a" d="M11,22A10,10,0,1,1,21,12,10,10,0,0,1,11,22ZM11,4a8,8,0,1,0,8,8A8,8,0,0,0,11,4Z" transform="translate(-1 -2)"/><path class="a" d="M28,29.74a3,3,0,0,1-1.93-.7L19.94,23.9a3,3,0,0,1,3.86-4.6l6.13,5.14A3,3,0,0,1,28,29.74ZM21.87,20.6h-.09a1,1,0,0,0-.55,1.77l6.13,5.14a1,1,0,1,0,1.28-1.53l-6.13-5.15A1,1,0,0,0,21.87,20.6Z" transform="translate(-1 -2)"/><path class="a" d="M20,21a1,1,0,0,1-.64-.23L17,18.82a1,1,0,1,1,1.28-1.54l2.34,1.95A1,1,0,0,1,20,21Z" transform="translate(-1 -2)"/></svg>