<svg xmlns="http://www.w3.org/2000/svg" width="36.667" height="30" viewBox="0 0 36.667 30"><g transform="translate(-3.3 -73.51)"><path d="M3.351,100.14A15.358,15.358,0,0,0,14.33,97.005a7.786,7.786,0,0,1-7.068-5.268,8.378,8.378,0,0,0,3.316-.131,7.79,7.79,0,0,1-5.987-7.532A8.051,8.051,0,0,0,8,84.989a7.639,7.639,0,0,1-3.3-6.531,7.036,7.036,0,0,1,1.016-3.534A21.7,21.7,0,0,0,21.3,82.819c-.036-.276-.058-.493-.087-.718a7.523,7.523,0,0,1,6.081-8.439,7.266,7.266,0,0,1,6.589,1.908.859.859,0,0,0,.9.225,18.1,18.1,0,0,0,4.187-1.633,7.842,7.842,0,0,1-3.011,4.049c.327-.058.66-.1.987-.167s.682-.152,1.023-.247.646-.189.965-.3a6.718,6.718,0,0,1,1.038-.3c-.189.261-.37.537-.573.791a16.918,16.918,0,0,1-2.881,2.837.572.572,0,0,0-.2.406,22.217,22.217,0,0,1-9.927,19,20.283,20.283,0,0,1-6.908,2.794,22.815,22.815,0,0,1-7.394.319,20.482,20.482,0,0,1-7.06-2.17c-.588-.3-1.154-.631-1.727-.951A.542.542,0,0,0,3.351,100.14Z"/></g></svg>