<svg xmlns="http://www.w3.org/2000/svg" width="42.689" height="30" viewBox="0 0 42.689 30"><g transform="translate(-3.09 -91.895)"><path d="M24.707,121.895c-4.8-.151-9.359-.269-13.92-.445a15.8,15.8,0,0,1-2.94-.42,4.877,4.877,0,0,1-3.68-3.276,17.432,17.432,0,0,1-.832-4.394,84.791,84.791,0,0,1-.151-10.535,26.3,26.3,0,0,1,.664-5.906,6.082,6.082,0,0,1,1.638-3.108A5.444,5.444,0,0,1,8.93,92.34c3.6-.176,7.183-.395,10.778-.428,4.839-.05,9.686.017,14.525.109a58.019,58.019,0,0,1,6.275.42A4.884,4.884,0,0,1,44.583,95.6a14.761,14.761,0,0,1,.924,4.419,84.154,84.154,0,0,1,.151,11.366,24.451,24.451,0,0,1-.731,5.729,5.316,5.316,0,0,1-4.142,4.058,15.259,15.259,0,0,1-2.621.286C33.595,121.617,29.033,121.76,24.707,121.895Zm-4.646-9.552c3.831-1.983,7.62-3.948,11.484-5.956-3.856-2.016-7.645-3.99-11.484-6Z"/></g></svg>